<svg width="100" height="100" viewBox="0 0 100 100" fill="none" xmlns="http://www.w3.org/2000/svg">
  <svg x="15.380" y="15.380" width="69.240" height="69.240" viewBox="0 0 26.6327 26.6327" overflow="visible">
<g id="Arduino--Streamline-Simple-Icons" clip-path="url(#clip0_0_19)">
<path id="Vector" d="M20.0701 6.82043C19.7372 6.82043 19.3965 6.8393 19.0636 6.897C16.2538 7.30426 14.3696 9.38161 13.3154 10.974C12.2612 9.38161 10.3769 7.30426 7.56715 6.897C7.23386 6.84797 6.89754 6.82239 6.56066 6.82043C2.93751 6.82043 -0.000958812 9.73227 -0.000958812 13.3166C-0.000958812 16.9009 2.94639 19.8127 6.56066 19.8127C6.89357 19.8127 7.23425 19.7939 7.57714 19.7362C10.3858 19.3189 12.2711 17.2427 13.3254 15.6492C14.3785 17.2427 16.2627 19.3189 19.0736 19.7362C19.4054 19.7839 19.7472 19.8127 20.0889 19.8127C23.6843 19.8127 26.6317 16.9009 26.6317 13.3166C26.6317 9.73227 23.6843 6.82043 20.0701 6.82043ZM7.24534 17.4602C7.01584 17.495 6.78388 17.5109 6.55178 17.5079C4.16816 17.5079 2.23618 15.6214 2.23618 13.3166C2.23618 11.0029 4.17704 9.12527 6.56177 9.12527C6.79259 9.12527 7.0234 9.14413 7.25422 9.17299C9.90639 9.56138 11.5232 12.2446 12.0781 13.3166C11.5143 14.3974 9.88752 17.0718 7.24534 17.4602ZM20.0712 17.5079C19.8404 17.5079 19.6096 17.489 19.3787 17.4602C16.7266 17.0718 15.0998 14.3885 14.5549 13.3166C15.0998 12.2446 16.7266 9.56138 19.3787 9.17299C19.6096 9.14413 19.8404 9.12527 20.0712 9.12527C22.4559 9.12527 24.3879 11.0117 24.3879 13.3166C24.3879 15.6303 22.4459 17.5079 20.0712 17.5079ZM21.9022 12.6208V13.8792H20.565V15.1909H19.2822V13.8792H17.9428V12.6208H19.2811V11.308H20.5639V12.6208H21.9022ZM4.7108 13.8692H8.67685V12.6208H4.70969L4.7108 13.8692Z" fill="black"/>
</g>
<defs>
<clipPath id="clip0_0_19">
<rect width="26.6327" height="26.6327" fill="white"/>
</clipPath>
</defs>
  </svg>
</svg>
