<svg width="100" height="100" viewBox="0 0 100 100" fill="none" xmlns="http://www.w3.org/2000/svg">
  <svg x="15.380" y="21.578" width="69.240" height="56.844" viewBox="0 0 27.0339 22.1939" overflow="visible">
<g id="Frame 427321820">
<path id="Vector" d="M13.885 12.4787C13.9348 11.5675 14.3697 10.7646 15.026 10.1955C15.6695 9.63649 16.5358 9.29483 17.4809 9.29483C18.4251 9.29483 19.2913 9.63649 19.9353 10.1955C20.5911 10.7646 21.0261 11.5674 21.0763 12.4777C21.1261 13.4141 20.7593 14.2839 20.1157 14.9287C19.4595 15.5845 18.5261 15.9961 17.4809 15.9961C16.4357 15.9961 15.5004 15.5845 14.8447 14.9287C14.2006 14.2839 13.8347 13.4141 13.885 12.4787Z" fill="black"/>
<g id="Group">
<path id="Vector_2" d="M8.15807 14.3201C8.16418 14.6768 8.27504 15.3697 8.44133 15.9109C8.79082 17.0564 9.38364 18.116 10.2085 19.05C11.055 20.0099 12.0974 20.7809 13.3014 21.3284C14.5669 21.9033 15.938 22.1963 17.3623 22.1939C18.7843 22.1919 20.1555 21.8932 21.421 21.3139C22.6249 20.7612 23.6663 19.9868 24.5114 19.0264C25.3358 18.0886 25.9277 17.027 26.2782 15.8815C26.4543 15.3027 26.5656 14.7153 26.6103 14.126C26.654 13.5453 26.6356 12.9636 26.5553 12.3824C26.3984 11.25 26.0165 10.1874 25.4284 9.21879C24.8905 8.32873 24.1972 7.54951 23.3728 6.89365L23.3746 6.89219L15.0549 0.338885C15.0474 0.333102 15.0413 0.326847 15.0333 0.321546C14.4875 -0.108306 13.5696 -0.106858 12.9692 0.323958C12.3623 0.759592 12.2928 1.48002 12.833 1.93445L12.8307 1.93686L16.3007 4.8316L5.7243 4.84318H5.71021C4.83601 4.84414 3.99563 5.43253 3.82934 6.1761C3.65835 6.93364 4.25211 7.56203 5.16107 7.5654L5.15967 7.56879L10.5204 7.55818L0.954473 15.0907C0.94226 15.0999 0.929105 15.1095 0.917832 15.1187C0.0154444 15.8275 -0.276263 17.0062 0.292133 17.7522C0.868984 18.5107 2.0955 18.5122 3.00728 17.7566L8.22806 13.3732C8.22806 13.3732 8.15196 13.965 8.15807 14.3201ZM21.5736 16.3017C20.4979 17.426 18.9919 18.0635 17.3623 18.0669C15.7304 18.0698 14.2244 17.438 13.1487 16.3157C12.623 15.7687 12.2369 15.1394 11.9987 14.4691C11.7653 13.8103 11.6746 13.1111 11.7347 12.4056C11.7916 11.716 11.9917 11.0582 12.3111 10.463C12.6249 9.87803 13.0571 9.34939 13.5907 8.90219C14.6364 8.02803 15.9676 7.5548 17.36 7.55288C18.7537 7.55095 20.084 8.01984 21.1306 8.89111C21.6633 9.33638 22.095 9.86309 22.4088 10.4472C22.7297 11.0418 22.9284 11.6972 22.9876 12.3887C23.0468 13.0932 22.9561 13.7915 22.7226 14.4508C22.484 15.123 22.0993 15.7523 21.5736 16.3017Z" fill="black"/>
</g>
</g>
  </svg>
</svg>
