<svg width="100" height="100" viewBox="0 0 100 100" fill="none" xmlns="http://www.w3.org/2000/svg">
  <svg x="17.202" y="15.380" width="65.596" height="69.240" viewBox="0 0 26.6327 28.1122" overflow="visible">
<g id="figma-color 1">
<path id="Vector" d="M4.43855 22.9337C4.43855 21.7564 4.90621 20.6274 5.73864 19.795C6.57107 18.9626 7.70009 18.4949 8.87733 18.4949H13.3161V22.9337C13.3161 24.1109 12.8485 25.2399 12.016 26.0724C11.1836 26.9048 10.0546 27.3724 8.87733 27.3724C7.70009 27.3724 6.57107 26.9048 5.73864 26.0724C4.90621 25.2399 4.43855 24.1109 4.43855 22.9337Z" stroke="var(--stroke-0, black)" stroke-width="1.47959"/>
<path id="Vector_2" d="M13.3161 0.739796V9.61735H17.7549C18.9321 9.61735 20.0611 9.14969 20.8936 8.31726C21.726 7.48483 22.1937 6.35581 22.1937 5.17857C22.1937 4.00133 21.726 2.87232 20.8936 2.03988C20.0611 1.20745 18.9321 0.739796 17.7549 0.739796L13.3161 0.739796Z" stroke="var(--stroke-0, black)" stroke-width="1.47959"/>
<path id="Vector_3" d="M17.7173 18.4949C18.8945 18.4949 20.0236 18.0272 20.856 17.1948C21.6884 16.3624 22.1561 15.2334 22.1561 14.0561C22.1561 12.8789 21.6884 11.7499 20.856 10.9174C20.0236 10.085 18.8945 9.61735 17.7173 9.61735C16.5401 9.61735 15.4111 10.085 14.5786 10.9174C13.7462 11.7499 13.2785 12.8789 13.2785 14.0561C13.2785 15.2334 13.7462 16.3624 14.5786 17.1948C15.4111 18.0272 16.5401 18.4949 17.7173 18.4949Z" stroke="var(--stroke-0, black)" stroke-width="1.47959"/>
<path id="Vector_4" d="M4.43855 5.17857C4.43855 6.35581 4.90621 7.48483 5.73864 8.31726C6.57107 9.14969 7.70009 9.61735 8.87733 9.61735H13.3161V0.739796H8.87733C7.70009 0.739796 6.57107 1.20745 5.73864 2.03988C4.90621 2.87232 4.43855 4.00133 4.43855 5.17857Z" stroke="var(--stroke-0, black)" stroke-width="1.47959"/>
<path id="Vector_5" d="M4.43855 14.0561C4.43855 15.2334 4.90621 16.3624 5.73864 17.1948C6.57107 18.0272 7.70009 18.4949 8.87733 18.4949H13.3161V9.61735H8.87733C7.70009 9.61735 6.57107 10.085 5.73864 10.9174C4.90621 11.7499 4.43855 12.8789 4.43855 14.0561Z" stroke="var(--stroke-0, black)" stroke-width="1.47959"/>
</g>
  </svg>
</svg>
