<svg width="100" height="100" viewBox="0 0 100 100" fill="none" xmlns="http://www.w3.org/2000/svg">
  <svg x="15.380" y="15.380" width="69.240" height="69.240" viewBox="0 0 26.6327 26.6327" overflow="visible">
<g id="autodesk-fusion-360-icon 1">
<path id="Vector" d="M11.618 6.10895C11.6197 9.53509 11.6353 12.963 11.6111 16.3908C12.4854 16.4878 13.3821 16.5172 14.253 16.3596C14.2045 15.0093 14.2512 13.6572 14.2253 12.3068C15.3402 12.1874 16.4637 12.2774 17.5821 12.2444C17.5684 11.6438 17.57 11.0447 17.5839 10.444C16.469 10.4371 15.3523 10.4544 14.2357 10.4336C14.2253 9.62337 14.227 8.81138 14.2339 8.00117C15.5617 8.00294 16.8914 7.99773 18.2192 8.00637C18.2227 7.37103 18.2175 6.73393 18.2158 6.09683C16.0171 6.11233 13.8166 6.09506 11.618 6.10895ZM4.90593 1.88986H22.5474C23.2243 1.9245 23.9133 2.41273 23.9514 3.12942C23.993 4.13007 23.9497 5.13426 23.9652 6.13662C23.9756 10.946 23.967 15.7554 23.9705 20.5631C18.4495 20.5683 12.9285 20.5597 7.40763 20.5701C6.57838 20.5926 5.7473 20.6341 4.91805 20.5631C4.87477 14.348 4.89896 8.13272 4.90421 1.91753L4.90593 1.88986Z" fill="var(--fill-0, #525252)"/>
<path id="Vector_2" d="M0.832527 4.37953C2.17425 3.53467 3.54193 2.72976 4.90446 1.91767C4.89921 8.13286 4.87497 14.348 4.9183 20.5633C4.2916 20.9338 3.67177 21.3163 3.04335 21.6868C2.30409 22.1284 1.57351 22.582 0.832527 23.0217V4.37953Z" fill="var(--fill-0, #828282)"/>
<path id="Vector_3" d="M11.6185 6.10921C13.8172 6.09532 16.0176 6.11259 18.2163 6.09709C18.218 6.73419 18.2232 7.37129 18.2198 8.00663C16.8919 7.99799 15.5623 8.00319 14.2344 8.00142C14.2275 8.81164 14.2258 9.62362 14.2362 10.4338C15.3528 10.4546 16.4695 10.4373 17.5844 10.4442C17.5705 11.045 17.5689 11.644 17.5827 12.2447C16.4643 12.2776 15.3407 12.1876 14.2258 12.307C14.2518 13.6575 14.205 15.0096 14.2535 16.3599C13.3827 16.5175 12.4859 16.488 11.6116 16.3911C11.6358 12.9632 11.6202 9.53535 11.6185 6.10921Z" fill="var(--fill-0, #FFFEFE)"/>
<path id="Vector_4" d="M23.9663 6.13688C24.5775 6.13167 25.1904 6.13167 25.8015 6.12996C25.7877 12.3348 25.7998 18.5378 25.7946 24.7426H4.29588C3.7367 24.656 3.18964 24.2839 3.07713 23.7022C2.96976 23.0357 3.04768 22.357 3.0442 21.687C3.67267 21.3165 4.29245 20.9338 4.91915 20.5634C5.74845 20.6344 6.57942 20.5928 7.40868 20.5704C12.9296 20.5599 18.4506 20.5686 23.9716 20.5634C23.9681 15.7557 23.9768 10.9463 23.9664 6.13688" fill="var(--fill-0, #222222)"/>
</g>
  </svg>
</svg>
