<svg width="100" height="100" viewBox="0 0 100 100" fill="none" xmlns="http://www.w3.org/2000/svg">
  <svg x="15.380" y="15.380" width="69.240" height="69.240" viewBox="0 0 26.6327 26.6327" overflow="visible">
<g id="aistudio 1" clip-path="url(#clip0_0_12)">
<path id="Vector" fill-rule="evenodd" clip-rule="evenodd" d="M11.0095 4.65621H7.0224C6.22649 4.65621 5.46315 4.97231 4.90025 5.53501C4.33735 6.0977 4.02097 6.86091 4.02068 7.65683V20.2652C4.02068 21.0613 4.33693 21.8248 4.89986 22.3877C5.46279 22.9506 6.22629 23.2669 7.0224 23.2669H19.6319C20.428 23.2669 21.1915 22.9506 21.7544 22.3877C22.3173 21.8248 22.6336 21.0613 22.6336 20.2652V14.9875L24.4346 13.7524V20.2663C24.4343 21.54 23.9282 22.7614 23.0276 23.662C22.127 24.5626 20.9055 25.0687 19.6319 25.069H7.0224C5.74872 25.0687 4.52729 24.5626 3.62666 23.662C2.72604 22.7614 2.21994 21.54 2.21964 20.2663V7.65794C2.2195 7.02714 2.34362 6.40249 2.58491 5.81966C2.82621 5.23684 3.17996 4.70725 3.62595 4.26116C4.07194 3.81506 4.60144 3.4612 5.18421 3.21977C5.76698 2.97833 6.3916 2.85407 7.0224 2.85407H12.066L11.0095 4.65621Z" fill="black"/>
<path id="Vector_2" fill-rule="evenodd" clip-rule="evenodd" d="M19.7743 4.98246e-06C19.9352 4.98246e-06 20.0717 0.115413 20.1061 0.27299C20.4212 1.73812 21.1535 3.08081 22.2145 4.13916C23.273 5.20079 24.6161 5.93344 26.0818 6.24869C26.2394 6.28309 26.3548 6.41958 26.3548 6.5816C26.3538 6.6596 26.3262 6.73493 26.2766 6.79508C26.2269 6.85523 26.1582 6.89659 26.0818 6.91229C24.6165 7.22774 23.2738 7.96037 22.2156 9.02182C21.1401 10.0939 20.4025 11.4577 20.0939 12.9446C20.0789 13.0185 20.039 13.0851 19.9808 13.1332C19.9226 13.1813 19.8497 13.2079 19.7743 13.2087C19.6988 13.2079 19.6259 13.1813 19.5678 13.1332C19.5096 13.0851 19.4697 13.0185 19.4547 12.9446C19.1461 11.4577 18.4084 10.0939 17.333 9.02182C16.2609 7.94634 14.8971 7.20869 13.4102 6.90008C13.3362 6.8851 13.2697 6.84518 13.2216 6.78702C13.1735 6.72885 13.1469 6.65595 13.1461 6.58049C13.1461 6.42513 13.2571 6.29197 13.4102 6.2609C14.8971 5.95229 16.2609 5.21464 17.333 4.13916C18.3944 3.08091 19.127 1.73822 19.4425 0.27299C19.4582 0.196399 19.4997 0.127519 19.5601 0.077841C19.6205 0.0281628 19.6961 0.000689822 19.7743 4.98246e-06Z" fill="black"/>
</g>
<defs>
<clipPath id="clip0_0_12">
<rect width="26.6327" height="26.6327" fill="white"/>
</clipPath>
</defs>
  </svg>
</svg>
