<svg width="100" height="100" viewBox="0 0 100 100" fill="none" xmlns="http://www.w3.org/2000/svg">
  <svg x="15.380" y="15.380" width="69.240" height="69.240" viewBox="0 0 26.6327 26.6327" overflow="visible">
<g id="Frame">
<path id="Subtract" d="M13.3169 0.105389C20.6129 0.105389 26.5277 6.02037 26.5278 13.3163C26.5278 20.6124 20.6129 26.5273 13.3169 26.5273C6.02087 26.5273 0.105965 20.6124 0.105965 13.3163C0.106058 6.02038 6.02093 0.105397 13.3169 0.105389ZM8.67628 17.8075C8.46112 17.623 8.13266 17.7853 8.1587 18.0673C8.20325 18.543 8.25734 19.0523 8.27491 19.1816C8.46754 20.5738 8.77929 21.9568 9.20655 23.3027C9.3264 23.6804 9.62406 23.9864 10.0024 24.1044C11.0509 24.4294 12.1618 24.6112 13.3169 24.6112C15.1327 24.6112 16.8434 24.1747 18.3618 23.4111C18.6218 23.2798 18.583 22.9025 18.3023 22.8251C17.0422 22.4794 15.8075 22.0416 14.6108 21.5126C12.4899 20.5701 10.4621 19.3474 8.67628 17.8075ZM6.70655 11.9003C6.75612 11.6198 6.44633 11.4194 6.21729 11.5888C5.75296 11.9333 5.17593 12.3682 4.92432 12.579C4.11435 13.2579 3.34549 13.9892 2.62647 14.7665C2.33782 15.0784 2.24245 15.5196 2.34034 15.9325C2.99492 18.6902 4.65848 21.0527 6.92237 22.6132C7.16831 22.7822 7.48564 22.5528 7.40284 22.2655C7.06902 21.1097 6.81298 19.9293 6.63917 18.7333C6.32165 16.4925 6.30495 14.1706 6.70655 11.9003ZM24.5816 14.1493C24.6029 13.8538 24.246 13.696 24.0396 13.9081C23.2352 14.7382 22.3765 15.5173 21.4692 16.2382C19.6966 17.6338 17.7152 18.8174 15.5698 19.6357C15.3102 19.7348 15.2867 20.0982 15.5386 20.2157C16.8676 20.8363 18.2549 21.3425 19.6743 21.7196C19.7646 21.7435 19.8555 21.767 19.9458 21.789C20.3505 21.8881 20.7866 21.7905 21.0884 21.5038C23.0681 19.6252 24.37 17.0395 24.5816 14.1493ZM14.9146 8.57219C14.6021 8.29994 14.1695 8.21188 13.7749 8.33976L9.92628 9.58683C9.52405 9.71736 9.22214 10.0532 9.13429 10.4667L8.32471 14.3017C8.23641 14.7207 8.38163 15.1554 8.7046 15.4364L11.7183 18.0605C12.0306 18.3325 12.4634 18.4207 12.8579 18.2929L16.7066 17.0458C17.1093 16.9153 17.4112 16.5799 17.4985 16.1659L18.3081 12.331C18.3966 11.912 18.2511 11.4773 17.9282 11.1962L14.9146 8.57219ZM19.5181 3.88176C19.2759 3.72237 18.968 3.94341 19.0396 4.22453C19.3715 5.53527 19.5976 6.87232 19.7124 8.22258C19.9063 10.5392 19.7786 12.9082 19.2534 15.206C19.1901 15.4825 19.4886 15.7018 19.7251 15.5448C19.993 15.366 20.2583 15.1819 20.5181 14.9911C21.7712 14.0631 22.946 13.0127 24.0103 11.8612C24.2813 11.5676 24.4008 11.1552 24.311 10.7655C23.649 7.89937 21.9011 5.45109 19.5181 3.88176ZM6.71046 4.77726C6.31845 4.68757 5.89864 4.79274 5.60499 5.0673C3.59074 6.95104 2.26502 9.56235 2.05225 12.4833C2.03092 12.7795 2.3878 12.9373 2.59425 12.7245C3.42562 11.8693 4.31352 11.0668 5.25343 10.3271C7.04995 8.92524 9.06067 7.74118 11.2368 6.93547C11.5029 6.83695 11.5214 6.4705 11.2622 6.35441C10.6636 6.08584 9.89328 5.74884 9.72511 5.68547C8.74439 5.3159 7.73572 5.01131 6.71046 4.77726ZM13.3169 2.02043C11.5576 2.02047 9.89687 2.42969 8.41358 3.14933C8.14815 3.27797 8.18959 3.66283 8.47511 3.73625C9.61008 4.02926 10.7256 4.40143 11.811 4.85441C13.9018 5.73287 15.8892 6.93585 17.6167 8.46183C17.8263 8.64695 18.1581 8.49728 18.1411 8.21867C18.0432 6.57589 17.7778 4.92914 17.3335 3.33781C17.2155 2.9157 16.8745 2.59753 16.4536 2.47453C15.4584 2.18337 14.4075 2.02043 13.3169 2.02043Z" fill="black"/>
</g>
  </svg>
</svg>
