<svg width="100" height="100" viewBox="0 0 100 100" fill="none" xmlns="http://www.w3.org/2000/svg">
  <svg x="15.380" y="15.380" width="69.240" height="69.240" viewBox="0 0 26.6327 26.6327" overflow="visible">
<g id="midjourney 1" clip-path="url(#clip0_0_17)">
<path id="Vector" fill-rule="evenodd" clip-rule="evenodd" d="M24.822 19.6149C23.2829 21.012 21.3043 22.2538 18.9051 23.4068C18.954 23.44 19.0006 23.47 19.0494 23.4989L19.0694 23.51L19.0904 23.5233C19.3301 23.6598 19.5565 23.7275 19.8018 23.7275C20.0481 23.7275 20.2745 23.6598 20.5142 23.5233L20.5342 23.5111L20.5552 23.4989C20.7106 23.4056 20.8504 23.3013 21.1012 23.0927L21.2987 22.9285C21.6083 22.671 21.7715 22.549 21.9923 22.4225C22.3296 22.2294 22.6714 22.1273 23.0454 22.1273C23.4194 22.1273 23.7611 22.2294 24.0985 22.4225L24.124 22.438C24.3326 22.5589 24.4947 22.681 24.7921 22.9285L24.9896 23.0927C25.2348 23.2969 25.3735 23.4012 25.5256 23.4922L25.5566 23.5111L25.5766 23.5222C25.8096 23.6553 26.0283 23.723 26.2646 23.7275H26.289C26.3364 23.7236 26.384 23.7297 26.4289 23.7452C26.4738 23.7607 26.515 23.7853 26.5499 23.8175C26.5848 23.8497 26.6127 23.8888 26.6317 23.9324C26.6508 23.9759 26.6606 24.0229 26.6606 24.0704C26.6606 24.1179 26.6508 24.1648 26.6317 24.2084C26.6127 24.2519 26.5848 24.291 26.5499 24.3232C26.515 24.3554 26.4738 24.38 26.4289 24.3955C26.384 24.411 26.3364 24.4171 26.289 24.4132C25.9151 24.4132 25.5733 24.3112 25.2348 24.1181C25.2012 24.0987 25.1679 24.0787 25.1349 24.0581L25.1105 24.0426L25.0861 24.0282L25.0639 24.0126C24.8748 23.8838 24.6932 23.7441 24.5202 23.5943L24.3437 23.4478C24.1758 23.3008 23.9966 23.1672 23.8078 23.0483L23.7778 23.0295L23.7567 23.0184C23.5424 22.8871 23.2967 22.8161 23.0454 22.8131C22.799 22.8131 22.5727 22.8808 22.3341 23.0173L22.3119 23.0295L22.2919 23.0417C22.1366 23.1349 21.9967 23.2392 21.7459 23.4478L21.5706 23.5943C21.3912 23.7502 21.2022 23.8948 21.0047 24.0271L20.9803 24.0426L20.9558 24.0581L20.856 24.1181C20.5374 24.3092 20.1733 24.4111 19.8018 24.4132C19.4278 24.4132 19.0871 24.3112 18.7487 24.1181C18.715 24.0987 18.6817 24.0787 18.6488 24.0581L18.6244 24.0426L18.6 24.0282L18.5711 24.0093C18.4074 23.8978 18.25 23.7774 18.0995 23.6487C18.0463 23.6237 18.0004 23.5855 17.9663 23.5377L17.8576 23.4478C17.6897 23.3008 17.5104 23.1672 17.3216 23.0483L17.2916 23.0295L17.2705 23.0184C17.0563 22.8871 16.8105 22.8161 16.5592 22.8131C16.3129 22.8131 16.0865 22.8808 15.8468 23.0173L15.8268 23.0295L15.8058 23.0417C15.6504 23.1349 15.5106 23.2392 15.2598 23.4478L15.0844 23.5943C14.905 23.7502 14.716 23.8948 14.5185 24.0271L14.493 24.0426L14.4686 24.0581L14.3687 24.1181C14.0504 24.309 13.6867 24.4109 13.3156 24.4132C12.9416 24.4132 12.5998 24.3112 12.2625 24.1181C12.2289 24.0987 12.1956 24.0787 12.1626 24.0581L12.1382 24.0426L12.1138 24.0282L12.0905 24.0126C11.9013 23.8838 11.7198 23.7441 11.5467 23.5943L11.3714 23.4478C11.2035 23.3008 11.0243 23.1672 10.8354 23.0483L10.8044 23.0295L10.7844 23.0184C10.5698 22.8869 10.3236 22.8159 10.072 22.8131C9.82672 22.8131 9.60034 22.8808 9.36065 23.0173L9.33956 23.0295L9.31959 23.0417C9.16312 23.1349 9.02441 23.2392 8.77362 23.4478L8.59829 23.5943C8.41851 23.7503 8.22912 23.8948 8.03124 24.0271L8.00682 24.0426L7.98241 24.0581L7.88254 24.1181C7.55209 24.3154 7.17322 24.4168 6.78838 24.411C5.96055 24.3112 5.32469 23.9893 4.69106 23.45L4.65222 23.4167C4.60006 23.3712 4.52127 23.2991 4.43916 23.2237L4.22166 23.0228L4.10292 22.9118L4.09071 22.9007C3.97993 22.7904 3.85447 22.696 3.71786 22.62C3.68472 22.6033 3.64913 22.5921 3.61243 22.5867H3.60689C3.47483 22.6111 3.34278 22.6522 3.20629 22.7088C3.18161 22.7357 3.15276 22.7586 3.12084 22.7764L3.11196 22.782C3.06857 22.8044 3.0209 22.8172 2.97214 22.8197C2.67054 22.9874 2.38326 23.1797 2.11324 23.3946L1.65161 23.7541L1.59057 23.8018C1.47343 23.8928 1.35353 23.9801 1.23103 24.0637C0.892575 24.2934 0.61848 24.4132 0.343276 24.4132C0.256891 24.4078 0.17572 24.3701 0.115951 24.3075C0.0561826 24.2449 0.0222102 24.162 0.0208098 24.0755C0.0194094 23.9889 0.050684 23.905 0.108396 23.8405C0.166108 23.776 0.246015 23.7357 0.332179 23.7275H0.343276C0.443149 23.7275 0.604054 23.6587 0.829322 23.5077L0.87371 23.4778C0.959156 23.4179 1.05459 23.3479 1.17333 23.2569L1.60056 22.9229L1.66714 22.8708C1.96454 22.6422 2.22865 22.4569 2.47722 22.3104L1.77478 20.9676C1.74845 20.9171 1.73516 20.8607 1.7361 20.8037C1.73704 20.7467 1.75219 20.6908 1.78018 20.6411C1.80816 20.5914 1.8481 20.5495 1.89638 20.5191C1.94465 20.4887 1.99973 20.4709 2.05664 20.4672L24.569 19.019C24.64 19.0144 24.7106 19.0319 24.7712 19.0692C24.8317 19.1065 24.8792 19.1617 24.907 19.2272C24.9348 19.2926 24.9415 19.3651 24.9263 19.4346C24.9111 19.5041 24.8746 19.5671 24.822 19.6149ZM23.5814 19.7703L2.62814 21.1175L3.09754 22.0152C3.23958 21.9653 3.38162 21.9286 3.5281 21.9042C3.54714 21.9008 3.56645 21.8989 3.5858 21.8987C3.73228 21.8987 3.87432 21.9342 4.01414 22.0019C4.18393 22.0829 4.34039 22.2005 4.55013 22.3903L4.56788 22.4069L4.66997 22.5024L4.82977 22.6511L4.93741 22.7498C5.00954 22.8164 5.07612 22.8763 5.11496 22.9096C5.65316 23.3735 6.16695 23.6398 6.83942 23.7263H6.85163C7.08614 23.7201 7.31522 23.6544 7.51745 23.5355L7.54075 23.5233L7.56184 23.5111L7.58181 23.4989C7.73828 23.4056 7.87699 23.3013 8.12778 23.0927L8.3253 22.9285C8.63491 22.671 8.79803 22.549 9.01886 22.4225C9.35732 22.2294 9.698 22.1273 10.0731 22.1273C10.4459 22.1273 10.7877 22.2294 11.1251 22.4225L11.1506 22.438C11.3592 22.5589 11.5223 22.681 11.8197 22.9285L12.0161 23.0927C12.2625 23.2969 12.4001 23.4012 12.5532 23.4922L12.5832 23.5111L12.6043 23.5222C12.8429 23.6598 13.0704 23.7275 13.3156 23.7275C13.5619 23.7275 13.7883 23.6598 14.0269 23.5233L14.048 23.5111L14.068 23.4989C14.2244 23.4056 14.3643 23.3013 14.615 23.0927L14.8115 22.9285C15.1222 22.671 15.2853 22.549 15.5061 22.4225C15.8435 22.2294 16.1853 22.1273 16.5592 22.1273C16.9332 22.1273 17.2739 22.2294 17.6123 22.4225L17.6401 22.4391C17.8476 22.5601 18.0107 22.6832 18.3092 22.9307C20.381 21.9564 22.1354 20.921 23.5581 19.788L23.5814 19.7703ZM4.05298 2.24822C6.73844 3.39565 9.64251 5.48298 11.984 8.05414C14.7138 11.0503 16.5437 14.5214 17.1296 18.2067C17.1388 18.2666 17.132 18.3279 17.1099 18.3843C17.0878 18.4407 17.0512 18.4903 17.0038 18.528C16.9564 18.5657 16.8998 18.5903 16.8399 18.5991C16.7799 18.608 16.7187 18.6009 16.6624 18.5785C14.0569 17.5298 11.6244 17.1825 9.34955 17.4466C7.41979 17.6685 5.6465 18.3255 4.00527 19.3364C3.67902 19.5384 3.31726 19.1344 3.55584 18.8326C5.61543 16.2193 6.41996 13.2952 6.15585 10.1836C5.93946 7.64022 5.01176 5.06795 3.62131 2.73871C3.58492 2.67636 3.56906 2.60415 3.57598 2.5323C3.5829 2.46044 3.61225 2.39259 3.65987 2.33834C3.7075 2.28409 3.77098 2.24619 3.84133 2.23002C3.91168 2.21385 3.98534 2.22021 4.05187 2.24822H4.05298ZM11.1406 4.93812C13.1136 5.54068 15.4595 7.2707 17.5568 9.64655C19.7585 12.1411 21.4985 15.1218 22.3807 18.0603C22.3987 18.1211 22.3995 18.1857 22.383 18.247C22.3666 18.3083 22.3335 18.3638 22.2874 18.4075C22.2414 18.4511 22.1841 18.4811 22.1221 18.4943C22.06 18.5074 21.9955 18.5032 21.9357 18.4819L21.9113 18.4708L21.4829 18.2999C21.3759 18.2569 21.2683 18.2155 21.16 18.1757L21.1423 18.169C20.3877 17.8949 19.8117 17.8461 18.985 18.0569C18.8978 18.079 18.8054 18.0661 18.7276 18.0209C18.6498 17.9756 18.5928 17.9017 18.5689 17.815C17.0641 12.3431 14.5063 8.07412 10.8465 5.54845C10.5236 5.3254 10.7666 4.82382 11.1417 4.93812H11.1406ZM4.74099 3.32463L4.74987 3.34127C5.89064 5.49408 6.64523 7.81445 6.84164 10.1248C7.07801 12.9135 6.49764 15.569 4.98513 17.9948L4.96293 18.0292L4.96626 18.0281C6.29567 17.3833 7.7072 16.9528 9.21084 16.7719L9.27187 16.7652C11.4702 16.51 13.8028 16.7974 16.2729 17.6941L16.3462 17.7218L16.3384 17.6785C15.6804 14.4049 13.9992 11.3122 11.5556 8.60233L11.4779 8.51577C9.49714 6.34077 7.10131 4.52088 4.80425 3.3557L4.74099 3.32463ZM13.5298 6.91781L13.583 6.97108C16.0654 9.51783 17.8942 12.9978 19.1027 17.1703L19.1448 17.3168L19.1692 17.3123C19.9571 17.1647 20.5941 17.2424 21.3476 17.5121L21.3775 17.5232L21.4508 17.5498L21.5018 17.5698L21.4741 17.4888C20.5741 14.9287 19.0239 12.362 17.1063 10.1714L17.0419 10.0993C15.9101 8.81761 14.7083 7.73344 13.5464 6.93002L13.5298 6.91781Z" fill="black"/>
</g>
<defs>
<clipPath id="clip0_0_17">
<rect width="26.6327" height="26.6327" fill="white"/>
</clipPath>
</defs>
  </svg>
</svg>
