<svg width="100" height="100" viewBox="0 0 100 100" fill="none" xmlns="http://www.w3.org/2000/svg">
  <svg x="15.380" y="15.380" width="69.240" height="69.240" viewBox="0 0 26.6327 26.6327" overflow="visible">
<g id="nanobanana 1">
<path id="Vector" fill-rule="evenodd" clip-rule="evenodd" d="M9.25722 14.6034H3.83414C3.26487 14.6034 2.97746 13.8943 3.38139 13.4804L5.16578 11.6461C5.4936 11.305 5.88693 11.0337 6.32217 10.8484C6.75741 10.663 7.22559 10.5675 7.69865 10.5675C8.17171 10.5675 8.6399 10.663 9.07514 10.8484C9.51037 11.0337 9.9037 11.305 10.2315 11.6461L10.8008 12.2309L10.8075 12.2142L10.8496 12.2331C11.6653 10.0914 11.7218 9.11598 11.7185 6.67687V6.37171C11.7074 4.39423 11.6963 2.00506 13.8991 1.6888C16.7876 1.27266 18.8971 6.3706 19.2422 10.8981C19.8832 10.661 20.5795 10.6159 21.2457 10.7685C21.9119 10.921 22.5191 11.2646 22.993 11.7571L24.7785 13.5914C25.1835 14.0075 24.8961 14.7144 24.3269 14.7144H21.384C21.4638 15.0073 21.506 15.3158 21.506 15.6332V21.9185C21.506 22.9328 20.403 23.3522 19.7283 22.5577C19.4742 22.2581 18.5442 21.1706 17.3369 19.7613C14.0966 24.4031 5.94478 26.9321 3.64328 23.097C3.62478 23.0975 3.60628 23.0975 3.58779 23.097H2.76329C2.47163 23.097 2.19191 22.9812 1.98568 22.7749C1.77944 22.5687 1.66358 22.289 1.66358 21.9973C1.66358 21.7056 1.77944 21.4259 1.98568 21.2197C2.19191 21.0135 2.47163 20.8976 2.76329 20.8976H3.03627C3.05181 19.0255 4.4012 17.4043 6.19446 16.6996C7.36109 16.2421 8.40841 15.5253 9.25722 14.6034ZM17.6276 12.2231C17.6276 12.0822 17.6265 11.939 17.6221 11.7926C17.5752 10.3116 17.3395 8.84274 16.9208 7.42148C16.4991 5.99885 15.9365 4.83589 15.3394 4.10127C14.7347 3.35667 14.3341 3.30784 14.1354 3.33558C13.888 3.37109 13.8114 3.44433 13.7781 3.47873C13.7226 3.53644 13.6283 3.67404 13.5462 3.9781C13.3775 4.60729 13.3797 5.40516 13.3831 6.40389V6.67465C13.3853 7.93305 13.3731 8.92511 13.2222 9.91496C13.0973 10.7015 12.8978 11.4744 12.6262 12.2231H17.6276ZM13.7792 15.6143C11.9638 19.1276 8.25183 20.841 4.77072 21.0186C4.60532 21.0269 4.45003 21.1007 4.339 21.2236C4.22798 21.3465 4.17032 21.5084 4.1787 21.6738C4.18709 21.8392 4.26084 21.9945 4.38373 22.1056C4.50662 22.2166 4.66858 22.2742 4.83398 22.2659C8.48931 22.0783 12.5142 20.325 14.6492 16.6275L13.7792 15.6143Z" fill="black"/>
</g>
  </svg>
</svg>
