<svg width="100" height="100" viewBox="0 0 100 100" fill="none" xmlns="http://www.w3.org/2000/svg">
  <svg x="15.380" y="15.380" width="69.240" height="69.240" viewBox="0 0 26.6327 26.6327" overflow="visible">
<g id="openai 1" clip-path="url(#clip0_0_8)">
<path id="Vector" fill-rule="evenodd" clip-rule="evenodd" d="M10.2151 9.60773V7.09982C10.2151 6.88898 10.295 6.73029 10.4792 6.62487L15.5205 3.72191C16.2074 3.32575 17.0253 3.14154 17.8698 3.14154C21.0368 3.14154 23.0431 5.59619 23.0431 8.20841C23.0431 8.39372 23.0431 8.60457 23.0165 8.81541L17.7899 5.75376C17.6479 5.66341 17.4832 5.61542 17.3149 5.61542C17.1467 5.61542 16.9819 5.66341 16.84 5.75376L10.2151 9.60773ZM21.9878 19.373V13.3829C21.9878 13.0134 21.8291 12.7504 21.5118 12.5651L14.8869 8.7111L17.0508 7.47046C17.1292 7.41886 17.221 7.39137 17.3149 7.39137C17.4088 7.39137 17.5006 7.41886 17.579 7.47046L22.6204 10.3745C24.0729 11.2179 25.0495 13.0134 25.0495 14.7556C25.0495 16.7619 23.8621 18.6096 21.9867 19.3753L21.9878 19.373ZM8.65818 14.0964L6.49428 12.8292C6.30896 12.7237 6.22906 12.5651 6.22906 12.3542V6.54608C6.22906 3.72191 8.39297 1.58353 11.3237 1.58353C12.4334 1.58353 13.462 1.95306 14.3332 2.61333L9.13313 5.62282C8.81687 5.80703 8.65818 6.07114 8.65818 6.44066V14.0953V14.0964ZM13.3167 16.7874L10.2151 15.0452V11.3499L13.3167 9.60773L16.4183 11.3499V15.0452L13.3167 16.7874ZM15.3097 24.8105C14.2 24.8105 13.1713 24.4421 12.3002 23.7818L17.5002 20.7724C17.8165 20.5882 17.9752 20.324 17.9752 19.9545V12.2998L20.1657 13.5671C20.351 13.6725 20.4298 13.8312 20.4298 14.0421V19.8491C20.4298 22.6733 18.2393 24.8105 15.3097 24.8105ZM9.05434 18.9258L4.01189 16.0218C2.56041 15.1773 1.58388 13.3829 1.58388 11.6407C1.58046 10.6508 1.87253 9.68232 2.4227 8.85934C2.97286 8.03636 3.7561 7.39629 4.67216 7.02103V13.0389C4.67216 13.4084 4.83085 13.6725 5.14711 13.8579L11.7465 17.6852L9.58256 18.9258C9.50419 18.9776 9.41235 19.0051 9.31845 19.0051C9.22455 19.0051 9.13271 18.9776 9.05434 18.9258ZM8.7636 23.2536C5.78075 23.2536 3.59021 21.0109 3.59021 18.2389C3.59021 18.0281 3.61684 17.8172 3.64237 17.6064L8.84239 20.6137C9.15976 20.799 9.47603 20.799 9.79229 20.6137L16.4172 16.7874V19.2954C16.4172 19.5062 16.3395 19.6649 16.1542 19.7703L11.1128 22.6733C10.4259 23.0694 9.60808 23.2536 8.7636 23.2536ZM15.3097 26.3941C16.8306 26.3942 18.3049 25.869 19.4831 24.9073C20.6614 23.9456 21.4713 22.6065 21.7759 21.1164C24.7321 20.3507 26.633 17.5776 26.633 14.7545C26.633 12.9068 25.8418 11.1125 24.4158 9.81857C24.5479 9.26372 24.6267 8.70999 24.6267 8.15625C24.6267 4.38218 21.565 1.5569 18.0284 1.5569C17.316 1.5569 16.6302 1.66232 15.9422 1.90091C14.7105 0.688464 13.0531 0.00617945 11.3248 7.1293e-09C9.80372 -7.06631e-05 8.32933 0.525291 7.15106 1.4872C5.97278 2.44912 5.16296 3.78852 4.85859 5.27881C1.90126 6.0445 0.000350952 8.81652 0.000350952 11.6407C0.000350952 13.4894 0.791563 15.2838 2.21752 16.5766C2.08547 17.1315 2.00668 17.6863 2.00668 18.24C2.00668 22.0141 5.06832 24.8383 8.60492 24.8383C9.31734 24.8383 10.0031 24.7329 10.6911 24.4954C11.923 25.7083 13.5809 26.3906 15.3097 26.3963V26.3941Z" fill="black"/>
</g>
<defs>
<clipPath id="clip0_0_8">
<rect width="26.6327" height="26.6327" fill="white"/>
</clipPath>
</defs>
  </svg>
</svg>
