<svg width="100" height="100" viewBox="0 0 100 100" fill="none" xmlns="http://www.w3.org/2000/svg">
  <svg x="15.380" y="15.380" width="69.240" height="69.240" viewBox="0 0 26.6327 26.6327" overflow="visible">
<g id="Frame" clip-path="url(#clip0_0_44)">
<path id="Subtract" d="M14.1985 11.5969C14.7561 11.1616 15.3907 10.8472 15.6262 11.8049C15.9285 13.0355 16.6972 14.8419 18.3674 14.2629C18.751 14.1296 19.571 13.386 19.9592 13.6662C20.4638 14.0297 19.3955 15.0227 19.1809 15.299C18.7925 15.7984 18.3558 16.5552 19.4319 16.467C20.2691 16.3987 20.7416 16.1787 21.428 15.7278C22.6714 14.9104 23.9529 14.076 25.0989 13.1242C25.3802 12.8899 26.6265 11.6619 26.4231 12.7492C26.2439 13.7022 25.692 14.4483 25.0413 15.1311C24.2502 15.9612 23.3964 16.7295 22.552 17.5041C21.9211 18.0824 21.2903 18.6615 20.6594 19.2404C20.0449 19.8045 20.2274 20.046 19.9387 20.8674C19.598 21.8348 18.8121 23.0704 17.8938 22.0149C17.1206 21.1257 18.8284 21.1518 18.8284 21.9406C18.8284 21.2798 19.0406 20.1866 17.9465 20.1418C17.5675 20.1262 17.2382 20.4232 17.2161 20.8029C17.2172 20.8015 17.326 21.4541 17.2942 21.4406C17.1789 21.3913 16.8583 20.8794 16.7161 21.007C16.6108 21.1024 16.8076 21.3173 16.8723 21.3742L17.6389 22.177C17.8601 22.3768 18.1684 22.7839 17.8899 23.0627C17.3992 23.5534 16.5963 22.472 16.2561 22.1721C15.0006 21.0667 13.6201 20.1554 12.179 19.3117C11.2209 18.7505 10.6012 18.524 10.6751 17.3606C10.7213 16.6314 10.7675 15.9012 10.8137 15.1721C11.219 15.3827 11.4284 15.762 11.4504 16.2121C11.471 16.6446 11.2145 17.4954 11.5061 17.8518C11.8113 18.2238 12.7404 18.6626 13.2141 18.7551C14.2105 18.95 14.3658 17.823 14.72 17.1955C15.1303 16.2759 16.1786 16.3073 17.0286 16.2014C16.5927 16.0549 16.2577 15.8544 15.8147 15.9817C15.2727 16.1374 14.7307 16.2937 14.1887 16.4494C14.6498 16.8377 14.2534 17.4347 13.7053 17.2375C13.423 17.1358 13.1749 16.9096 12.9338 16.7346C12.7204 16.5802 12.2051 16.2836 12.0344 16.0822C11.7506 15.7479 12.3872 15.2297 12.5422 15.049C12.0692 15.0362 11.4808 15.0735 11.0149 15.008C10.1306 14.8825 10.2144 13.7942 10.8088 13.5529C12.1241 13.0664 13.3271 12.4533 14.1985 11.5969ZM13.0364 15.7278C12.9312 15.6723 12.8031 15.7129 12.7483 15.8166C12.6928 15.9205 12.7333 16.0502 12.8372 16.1057C13.0284 16.2074 13.2173 16.3514 13.3958 16.5334C13.4377 16.5759 13.4928 16.5969 13.5481 16.5969C13.6019 16.5968 13.6557 16.5773 13.6975 16.5363C13.7814 16.4546 13.7829 16.3185 13.7004 16.2346C13.4906 16.0205 13.2675 15.8501 13.0364 15.7278Z" fill="black"/>
<path id="Vector" d="M12.4601 5.67654C11.9821 5.22484 11.4422 4.6764 11.0908 4.6764C10.8553 4.6764 10.7052 4.92252 10.7152 5.60897C10.7315 6.74071 10.3887 7.84827 10.0614 8.92026C9.63891 10.3067 8.73408 11.6611 7.69197 12.6491C7.24382 12.504 6.86325 12.2451 6.6029 11.782C7.98433 10.1132 9.16871 7.6434 9.06628 5.44109C8.9987 3.99493 8.49507 3.5226 7.61941 3.52189C7.21537 3.52189 6.73165 3.6229 6.17538 3.77513C5.52593 3.95296 4.87647 4.1308 4.22631 4.30863C3.23185 4.58108 4.094 5.16153 4.35648 5.64667C5.23783 7.27351 4.784 9.14861 4.4454 10.8487C3.68426 10.5179 2.89254 10.286 2.20396 10.286C1.13837 10.286 0.320327 10.8416 0.244213 12.4492C0.20011 13.374 0.478245 13.6237 0.922122 13.6237C1.25432 13.6237 1.68041 13.4835 2.13354 13.3832C2.38322 13.3277 2.63575 13.3028 2.88898 13.3028C3.67146 13.3028 4.45536 13.5433 5.14963 13.8705C7.09302 14.7874 8.17568 16.2435 9.29604 18.0162C9.53861 18.4003 9.71645 18.5518 9.84449 18.5518C10.2215 18.5518 10.1646 17.2394 10.0629 16.7059C9.86654 15.6816 9.2683 14.7604 8.82513 13.8271C10.6191 13.2972 12.9758 12.5225 14.2363 11.05C15.5729 9.49076 13.6665 6.81683 12.4601 5.67654Z" fill="black"/>
</g>
<defs>
<clipPath id="clip0_0_44">
<rect width="26.6327" height="26.6327" fill="white"/>
</clipPath>
</defs>
  </svg>
</svg>
