<svg width="27" height="25" viewBox="0 0 27 25" fill="none" xmlns="http://www.w3.org/2000/svg">
<path d="M11.0694 11.6945C12.4497 11.0414 13.1701 10.0531 13.1701 8.51484C13.1701 5.48125 10.8872 4.74219 8.2526 4.74219H1V19.9703H8.4566C11.2517 19.9703 13.8776 18.6426 13.8776 15.5488C13.8776 13.6367 12.9618 12.223 11.0694 11.6945ZM4.38108 7.3418H7.55382C8.77344 7.3418 9.87153 7.68125 9.87153 9.08203C9.87153 10.3754 9.01649 10.8953 7.8099 10.8953H4.38108V7.3418ZM7.99653 17.3836H4.38108V13.1898H8.06597C9.55469 13.1898 10.4965 13.8043 10.4965 15.3641C10.4965 16.9023 9.3724 17.3836 7.99653 17.3836ZM23.5564 7.04102H17.3194V5.54141H23.5564V7.04102ZM26 14.6164C26 11.3551 24.0729 8.63516 20.579 8.63516C17.1849 8.63516 14.8802 11.1617 14.8802 14.4703C14.8802 17.9035 17.0634 20.2582 20.579 20.2582C23.2396 20.2582 24.9627 19.0723 25.7917 16.55H23.092C22.8012 17.491 21.6033 17.9895 20.6745 17.9895C18.8819 17.9895 17.9401 16.9496 17.9401 15.1836H25.974C25.987 15.0031 26 14.8098 26 14.6164ZM17.9444 13.2758C18.0443 11.8277 19.0165 10.9211 20.4835 10.9211C22.02 10.9211 22.7925 11.8148 22.9227 13.2758H17.9444Z" fill="black"/>
</svg>
