<svg width="22" height="16" viewBox="0 0 22 16" fill="none" xmlns="http://www.w3.org/2000/svg">
<path d="M10.999 8.58105C10.7595 8.58105 10.5082 8.46711 10.2453 8.23922L1.41899 0.377088C1.88061 0.125827 2.43864 0.000196518 3.09309 0.000196518H18.9138C19.5682 0.000196518 20.1262 0.125827 20.5879 0.377088L11.7616 8.23922C11.5045 8.46711 11.2503 8.58105 10.999 8.58105ZM0.209434 14.0942C0.145158 13.913 0.0925684 13.7173 0.0516655 13.5069C0.0166058 13.2907 -0.000924046 13.0482 -0.000924046 12.7794V3.07668C-0.000924046 2.79036 0.0195274 2.53326 0.0604304 2.30537C0.101333 2.07164 0.153923 1.88173 0.218199 1.73565L6.75683 7.56432L0.209434 14.0942ZM2.95285 15.8559C2.63147 15.8559 2.33931 15.8238 2.07636 15.7595C1.81341 15.7011 1.58553 15.6164 1.3927 15.5053L8.12415 8.77388L9.18471 9.71173C9.48272 9.98052 9.7778 10.1763 10.07 10.299C10.3621 10.4217 10.6718 10.483 10.999 10.483C11.3321 10.483 11.6447 10.4217 11.9369 10.299C12.2291 10.1763 12.5271 9.98052 12.8309 9.71173L13.8827 8.77388L20.6229 15.5053C20.4243 15.6164 20.1934 15.7011 19.9305 15.7595C19.6676 15.8238 19.3783 15.8559 19.0628 15.8559H2.95285ZM21.7974 14.0942L15.25 7.56432L21.7887 1.73565C21.8471 1.88173 21.8968 2.07164 21.9377 2.30537C21.9844 2.53326 22.0078 2.79036 22.0078 3.07668V12.7794C22.0078 13.0482 21.9873 13.2907 21.9464 13.5069C21.9114 13.7173 21.8617 13.913 21.7974 14.0942Z" fill="#171717"/>
</svg>
