<svg width="18" height="18" viewBox="0 0 18 18" fill="none" xmlns="http://www.w3.org/2000/svg">
<path d="M4.69722 12.3673C3.8032 11.4733 3.00267 10.5413 2.29563 9.5713C1.5886 8.59547 1.02764 7.62548 0.612768 6.66134C0.203738 5.69136 -0.000776289 4.77104 -0.000776289 3.90039C-0.000776289 3.32775 0.0985594 2.79017 0.297231 2.28765C0.495902 1.78513 0.785145 1.3498 1.16496 0.981677C1.43375 0.724572 1.7376 0.496685 2.07651 0.298013C2.42126 0.0993417 2.74849 5.94463e-06 3.05818 5.94463e-06C3.3036 5.94463e-06 3.52856 0.0847335 3.73308 0.254189C3.93759 0.423644 4.15087 0.663218 4.37292 0.972912L5.91554 3.12032C6.09084 3.35989 6.21063 3.57901 6.2749 3.77769C6.34502 3.97636 6.38008 4.16334 6.38008 4.33864C6.38008 4.49641 6.35671 4.64249 6.30996 4.77689C6.26322 4.91128 6.18433 5.07782 6.07331 5.27649L5.23188 6.74023C5.19682 6.8045 5.16468 6.86586 5.13547 6.92429C5.11209 6.98272 5.10041 7.04116 5.10041 7.09959C5.10041 7.17555 5.11209 7.24567 5.13547 7.30995C5.15884 7.37422 5.18221 7.42973 5.20558 7.47648C5.5854 8.23026 6.21355 9.04832 7.09004 9.93066C7.52829 10.3631 7.9753 10.7575 8.43107 11.1139C8.88685 11.4704 9.29004 11.7275 9.64063 11.8852C9.72828 11.9261 9.80425 11.9583 9.86852 11.9816C9.93864 11.9992 10.0175 12.0079 10.1052 12.0079C10.1636 12.0079 10.2191 12.0021 10.2717 11.9904C10.3243 11.9729 10.3973 11.9378 10.4908 11.8852L11.9283 11.0964C12.1679 10.9678 12.3578 10.8831 12.498 10.8422C12.6441 10.8013 12.7902 10.7809 12.9362 10.7809C13.0999 10.7809 13.2605 10.8101 13.4183 10.8685C13.5761 10.9269 13.7952 11.0526 14.0757 11.2454L16.3107 12.8581C16.6087 13.0685 16.822 13.2672 16.9506 13.4542C17.085 13.6353 17.1522 13.8252 17.1522 14.0239C17.1522 14.2751 17.0762 14.5498 16.9243 14.8478C16.7782 15.1458 16.5386 15.4818 16.2056 15.8557C15.855 16.2472 15.4226 16.554 14.9083 16.7761C14.3941 17.0039 13.8332 17.1179 13.2255 17.1179C12.3548 17.1179 11.4316 16.9105 10.4558 16.4956C9.48579 16.0807 8.50704 15.5139 7.51952 14.7952C6.53785 14.0765 5.59708 13.2672 4.69722 12.3673Z" fill="#171717"/>
</svg>
