<svg width="109" height="31" viewBox="0 0 109 31" fill="none" xmlns="http://www.w3.org/2000/svg">
<path d="M3.63914 9.88012C3.63914 10.3601 3.72581 10.7668 3.89914 11.1001C4.07247 11.4335 4.29914 11.7068 4.57914 11.9201C4.87247 12.1201 5.21247 12.2735 5.59914 12.3801C5.98581 12.4735 6.38581 12.5201 6.79914 12.5201C7.07914 12.5201 7.37914 12.5001 7.69914 12.4601C8.01914 12.4068 8.31914 12.3135 8.59914 12.1801C8.87914 12.0468 9.11247 11.8668 9.29914 11.6401C9.48581 11.4001 9.57914 11.1001 9.57914 10.7401C9.57914 10.3535 9.45247 10.0401 9.19914 9.80012C8.95914 9.56012 8.63914 9.36012 8.23914 9.20012C7.83914 9.04012 7.38581 8.90012 6.87914 8.78012C6.37247 8.66012 5.85914 8.52678 5.33914 8.38012C4.80581 8.24678 4.28581 8.08678 3.77914 7.90012C3.27247 7.70012 2.81914 7.44678 2.41914 7.14012C2.01914 6.83345 1.69247 6.45345 1.43914 6.00012C1.19914 5.53345 1.07914 4.97345 1.07914 4.32012C1.07914 3.58678 1.23247 2.95345 1.53914 2.42012C1.85914 1.87345 2.27247 1.42012 2.77914 1.06012C3.28581 0.700116 3.85914 0.43345 4.49914 0.260116C5.13914 0.0867834 5.77914 0.000117064 6.41914 0.000117064C7.16581 0.000117064 7.87914 0.0867834 8.55914 0.260116C9.25247 0.420116 9.86581 0.686783 10.3991 1.06012C10.9325 1.43345 11.3525 1.91345 11.6591 2.50012C11.9791 3.07345 12.1391 3.77345 12.1391 4.60012H9.09914C9.07247 4.17345 8.97914 3.82012 8.81914 3.54012C8.67247 3.26012 8.47247 3.04012 8.21914 2.88012C7.96581 2.72012 7.67247 2.60678 7.33914 2.54012C7.01914 2.47345 6.66581 2.44012 6.27914 2.44012C6.02581 2.44012 5.77247 2.46678 5.51914 2.52012C5.26581 2.57345 5.03247 2.66678 4.81914 2.80012C4.61914 2.93345 4.45247 3.10012 4.31914 3.30012C4.18581 3.50012 4.11914 3.75345 4.11914 4.06012C4.11914 4.34012 4.17247 4.56678 4.27914 4.74012C4.38581 4.91345 4.59247 5.07345 4.89914 5.22012C5.21914 5.36678 5.65247 5.51345 6.19914 5.66012C6.75914 5.80678 7.48581 5.99345 8.37914 6.22012C8.64581 6.27345 9.01247 6.37345 9.47914 6.52012C9.95914 6.65345 10.4325 6.87345 10.8991 7.18012C11.3658 7.48678 11.7658 7.90012 12.0991 8.42012C12.4458 8.92678 12.6191 9.58012 12.6191 10.3801C12.6191 11.0335 12.4925 11.6401 12.2391 12.2001C11.9858 12.7601 11.6058 13.2468 11.0991 13.6601C10.6058 14.0601 9.98581 14.3735 9.23914 14.6001C8.50581 14.8268 7.65247 14.9401 6.67914 14.9401C5.89247 14.9401 5.12581 14.8401 4.37914 14.6401C3.64581 14.4535 2.99247 14.1535 2.41914 13.7401C1.85914 13.3268 1.41247 12.8001 1.07914 12.1601C0.745807 11.5201 0.585807 10.7601 0.599141 9.88012H3.63914ZM16.7874 9.06012L11.5474 0.340116H15.0674L18.4074 5.98012L21.7274 0.340116H25.2274L19.9274 9.14012V14.6201H16.7874V9.06012ZM25.0273 0.340116H29.4473L32.7873 10.1601H32.8273L35.9873 0.340116H40.4073V14.6201H37.4673V4.50012H37.4273L33.9273 14.6201H31.5073L28.0073 4.60012H27.9673V14.6201H25.0273V0.340116ZM45.3718 9.10012H49.0718L47.2718 3.86012H47.2318L45.3718 9.10012ZM45.6718 0.340116H48.8918L54.2318 14.6201H50.9718L49.8918 11.4401H44.5518L43.4318 14.6201H40.2718L45.6718 0.340116ZM64.3832 13.0001C63.8232 13.7201 63.2032 14.2268 62.5232 14.5201C61.8432 14.8001 61.1565 14.9401 60.4632 14.9401C59.3699 14.9401 58.3832 14.7535 57.5032 14.3801C56.6365 13.9935 55.9032 13.4668 55.3032 12.8001C54.7032 12.1335 54.2432 11.3535 53.9232 10.4601C53.6032 9.55345 53.4432 8.58012 53.4432 7.54012C53.4432 6.47345 53.6032 5.48678 53.9232 4.58012C54.2432 3.66012 54.7032 2.86012 55.3032 2.18012C55.9032 1.50012 56.6365 0.966783 57.5032 0.580117C58.3832 0.19345 59.3699 0.000117064 60.4632 0.000117064C61.1965 0.000117064 61.9032 0.11345 62.5832 0.340116C63.2765 0.55345 63.8965 0.87345 64.4432 1.30012C65.0032 1.72678 65.4632 2.25345 65.8232 2.88012C66.1832 3.50678 66.4032 4.22678 66.4832 5.04012H63.4832C63.2965 4.24012 62.9365 3.64012 62.4032 3.24012C61.8699 2.84012 61.2232 2.64012 60.4632 2.64012C59.7565 2.64012 59.1565 2.78012 58.6632 3.06012C58.1699 3.32678 57.7699 3.69345 57.4632 4.16012C57.1565 4.61345 56.9299 5.13345 56.7832 5.72012C56.6499 6.30678 56.5832 6.91345 56.5832 7.54012C56.5832 8.14012 56.6499 8.72678 56.7832 9.30012C56.9299 9.86012 57.1565 10.3668 57.4632 10.8201C57.7699 11.2735 58.1699 11.6401 58.6632 11.9201C59.1565 12.1868 59.7565 12.3201 60.4632 12.3201C61.5032 12.3201 62.3032 12.0601 62.8632 11.5401C63.4365 11.0068 63.7699 10.2401 63.8632 9.24012H60.7032V6.90012H66.7032V14.6201H64.7032L64.3832 13.0001ZM70.979 6.80012H74.419C75.139 6.80012 75.679 6.64012 76.039 6.32012C76.399 6.00012 76.579 5.48012 76.579 4.76012C76.579 4.06678 76.399 3.56678 76.039 3.26012C75.679 2.94012 75.139 2.78012 74.419 2.78012H70.979V6.80012ZM67.839 0.340116H75.539C76.179 0.340116 76.7523 0.446783 77.259 0.660117C77.779 0.860117 78.219 1.14012 78.579 1.50012C78.9523 1.86012 79.2323 2.28012 79.419 2.76012C79.619 3.22678 79.719 3.73345 79.719 4.28012C79.719 5.12012 79.539 5.84678 79.179 6.46012C78.8323 7.07345 78.259 7.54012 77.459 7.86012V7.90012C77.8457 8.00678 78.1657 8.17345 78.419 8.40012C78.6723 8.61345 78.879 8.87345 79.039 9.18012C79.199 9.47345 79.3123 9.80012 79.379 10.1601C79.459 10.5201 79.5123 10.8801 79.539 11.2401C79.5523 11.4668 79.5657 11.7335 79.579 12.0401C79.5923 12.3468 79.6123 12.6601 79.639 12.9801C79.679 13.3001 79.7323 13.6068 79.799 13.9001C79.879 14.1801 79.9923 14.4201 80.139 14.6201H76.999C76.8257 14.1668 76.719 13.6268 76.679 13.0001C76.639 12.3735 76.579 11.7735 76.499 11.2001C76.3923 10.4535 76.1657 9.90678 75.819 9.56012C75.4723 9.21345 74.9057 9.04012 74.119 9.04012H70.979V14.6201H67.839V0.340116ZM84.4726 9.10012H88.1726L86.3726 3.86012H86.3326L84.4726 9.10012ZM84.7726 0.340116H87.9926L93.3326 14.6201H90.0726L88.9926 11.4401H83.6526L82.5326 14.6201H79.3726L84.7726 0.340116ZM93.164 0.340116H97.584L100.924 10.1601H100.964L104.124 0.340116H108.544V14.6201H105.604V4.50012H105.564L102.064 14.6201H99.644L96.144 4.60012H96.104V14.6201H93.164V0.340116ZM5.09914 25.1001H8.79914L6.99914 19.8601H6.95914L5.09914 25.1001ZM5.39914 16.3401H8.61914L13.9591 30.6201H10.6991L9.61914 27.4401H4.27914L3.15914 30.6201H-0.000859376L5.39914 16.3401ZM16.9305 22.8001H20.3705C21.0905 22.8001 21.6305 22.6401 21.9905 22.3201C22.3505 22.0001 22.5305 21.4801 22.5305 20.7601C22.5305 20.0668 22.3505 19.5668 21.9905 19.2601C21.6305 18.9401 21.0905 18.7801 20.3705 18.7801H16.9305V22.8001ZM13.7905 16.3401H21.4905C22.1305 16.3401 22.7039 16.4468 23.2105 16.6601C23.7305 16.8601 24.1705 17.1401 24.5305 17.5001C24.9039 17.8601 25.1839 18.2801 25.3705 18.7601C25.5705 19.2268 25.6705 19.7335 25.6705 20.2801C25.6705 21.1201 25.4905 21.8468 25.1305 22.4601C24.7839 23.0735 24.2105 23.5401 23.4105 23.8601V23.9001C23.7972 24.0068 24.1172 24.1735 24.3705 24.4001C24.6239 24.6135 24.8305 24.8735 24.9905 25.1801C25.1505 25.4735 25.2639 25.8001 25.3305 26.1601C25.4105 26.5201 25.4639 26.8801 25.4905 27.2401C25.5039 27.4668 25.5172 27.7335 25.5305 28.0401C25.5439 28.3468 25.5639 28.6601 25.5905 28.9801C25.6305 29.3001 25.6839 29.6068 25.7505 29.9001C25.8305 30.1801 25.9439 30.4201 26.0905 30.6201H22.9505C22.7772 30.1668 22.6705 29.6268 22.6305 29.0001C22.5905 28.3735 22.5305 27.7735 22.4505 27.2001C22.3439 26.4535 22.1172 25.9068 21.7705 25.5601C21.4239 25.2135 20.8572 25.0401 20.0705 25.0401H16.9305V30.6201H13.7905V16.3401ZM36.3441 21.1401C36.2908 20.7801 36.1708 20.4534 35.9841 20.1601C35.7975 19.8535 35.5641 19.5868 35.2841 19.3601C35.0041 19.1334 34.6841 18.9601 34.3241 18.8401C33.9775 18.7068 33.6108 18.6401 33.2241 18.6401C32.5175 18.6401 31.9175 18.7801 31.4241 19.0601C30.9308 19.3268 30.5308 19.6935 30.2241 20.1601C29.9175 20.6135 29.6908 21.1335 29.5441 21.7201C29.4108 22.3068 29.3441 22.9135 29.3441 23.5401C29.3441 24.1401 29.4108 24.7268 29.5441 25.3001C29.6908 25.8601 29.9175 26.3668 30.2241 26.8201C30.5308 27.2735 30.9308 27.6401 31.4241 27.9201C31.9175 28.1868 32.5175 28.3201 33.2241 28.3201C34.1841 28.3201 34.9308 28.0268 35.4641 27.4401C36.0108 26.8535 36.3441 26.0801 36.4641 25.1201H39.5041C39.4241 26.0135 39.2175 26.8201 38.8841 27.5401C38.5508 28.2601 38.1108 28.8735 37.5641 29.3801C37.0175 29.8868 36.3775 30.2735 35.6441 30.5401C34.9108 30.8068 34.1041 30.9401 33.2241 30.9401C32.1308 30.9401 31.1441 30.7535 30.2641 30.3801C29.3975 29.9935 28.6641 29.4668 28.0641 28.8001C27.4641 28.1335 27.0041 27.3535 26.6841 26.4601C26.3641 25.5535 26.2041 24.5801 26.2041 23.5401C26.2041 22.4735 26.3641 21.4868 26.6841 20.5801C27.0041 19.6601 27.4641 18.8601 28.0641 18.1801C28.6641 17.5001 29.3975 16.9668 30.2641 16.5801C31.1441 16.1935 32.1308 16.0001 33.2241 16.0001C34.0108 16.0001 34.7508 16.1135 35.4441 16.3401C36.1508 16.5668 36.7775 16.9001 37.3241 17.3401C37.8841 17.7668 38.3441 18.3001 38.7041 18.9401C39.0641 19.5801 39.2908 20.3135 39.3841 21.1401H36.3441ZM40.2484 16.3401H43.3884V21.8201H49.1684V16.3401H52.3084V30.6201H49.1684V24.4601H43.3884V30.6201H40.2484V16.3401ZM53.6726 16.3401H56.8126V30.6201H53.6726V16.3401ZM64.811 30.6201H61.271L56.651 16.3401H59.871L63.051 26.3801H63.091L66.311 16.3401H69.551L64.811 30.6201ZM69.3687 16.3401H80.0487V18.9801H72.5087V22.0401H79.4287V24.4801H72.5087V27.9801H80.2087V30.6201H69.3687V16.3401Z" fill="black"/>
</svg>
